<svg width="434" height="64" viewBox="0 0 434 64" fill="none" xmlns="http://www.w3.org/2000/svg">
<rect width="12.8" height="12.8" transform="translate(51.2 12.8)" fill="#FFF600"/>
<rect x="51.2" y="12.8" width="12.8" height="12.8" fill="#FFF600"/>
<rect width="12.8" height="12.8" transform="translate(51.2 25.6)" fill="#FFF600"/>
<rect x="51.2" y="25.6" width="12.8" height="12.8" fill="#FFF600"/>
<rect width="12.8" height="12.8" transform="translate(51.2 38.4)" fill="#FFF600"/>
<rect x="51.2" y="38.4" width="12.8" height="12.8" fill="#FFF600"/>
<rect width="12.8" height="12.8" transform="translate(51.2 51.2)" fill="#FFF600"/>
<rect x="51.2" y="51.2" width="12.8" height="12.8" fill="#FFF600"/>
<rect width="12.8" height="12.8" transform="translate(25.6 38.4)" fill="#FFF600"/>
<rect x="25.6" y="38.4" width="12.8" height="12.8" fill="#FFF600"/>
<rect width="12.8" height="12.8" transform="translate(12.8 51.2)" fill="#FFF600"/>
<rect x="12.8" y="51.2" width="12.8" height="12.8" fill="#FFF600"/>
<rect width="12.8" height="12.8" transform="translate(25.6 51.2)" fill="#FFF600"/>
<rect x="25.6" y="51.2" width="12.8" height="12.8" fill="#FFF600"/>
<rect width="12.8" height="12.8" transform="translate(38.4 51.2)" fill="#FFF600"/>
<rect x="38.4" y="51.2" width="12.8" height="12.8" fill="#FFF600"/>
<rect width="12.8" height="12.8" transform="translate(12.8)" fill="#FF005C"/>
<rect x="12.8" width="12.8" height="12.8" fill="#FF005C"/>
<rect width="12.8" height="12.8" transform="translate(25.6)" fill="#FF005C"/>
<rect x="25.6" width="12.8" height="12.8" fill="#FF005C"/>
<rect width="12.8" height="12.8" transform="translate(38.4)" fill="#FF005C"/>
<rect x="38.4" width="12.8" height="12.8" fill="#FF005C"/>
<rect width="12.8" height="12.8" transform="translate(25.6 12.8)" fill="#FF005C"/>
<rect x="25.6" y="12.8" width="12.8" height="12.8" fill="#FF005C"/>
<rect width="12.8" height="12.8" transform="translate(0 12.8)" fill="#FF005C"/>
<rect y="12.8" width="12.8" height="12.8" fill="#FF005C"/>
<rect width="12.8" height="12.8" transform="translate(0 25.6)" fill="#FF005C"/>
<rect y="25.6" width="12.8" height="12.8" fill="#FF005C"/>
<rect width="12.8" height="12.8" transform="translate(0 38.4)" fill="#FF005C"/>
<rect y="38.4" width="12.8" height="12.8" fill="#FF005C"/>
<rect width="12.8" height="12.8" fill="#FF005C"/>
<rect width="12.8" height="12.8" fill="#FF005C"/>
<path d="M106.16 15.304V49H97.952V35.128H85.184V49H76.976V15.304H85.184V28.504H97.952V15.304H106.16ZM110.453 35.56C110.453 32.808 110.965 30.392 111.989 28.312C113.045 26.232 114.469 24.632 116.261 23.512C118.053 22.392 120.053 21.832 122.261 21.832C124.149 21.832 125.797 22.216 127.205 22.984C128.645 23.752 129.749 24.76 130.517 26.008V22.216H138.725V49H130.517V45.208C129.717 46.456 128.597 47.464 127.157 48.232C125.749 49 124.101 49.384 122.213 49.384C120.037 49.384 118.053 48.824 116.261 47.704C114.469 46.552 113.045 44.936 111.989 42.856C110.965 40.744 110.453 38.312 110.453 35.56ZM130.517 35.608C130.517 33.56 129.941 31.944 128.789 30.76C127.669 29.576 126.293 28.984 124.661 28.984C123.029 28.984 121.637 29.576 120.485 30.76C119.365 31.912 118.805 33.512 118.805 35.56C118.805 37.608 119.365 39.24 120.485 40.456C121.637 41.64 123.029 42.232 124.661 42.232C126.293 42.232 127.669 41.64 128.789 40.456C129.941 39.272 130.517 37.656 130.517 35.608ZM152.872 26.008C153.672 24.76 154.776 23.752 156.184 22.984C157.592 22.216 159.24 21.832 161.128 21.832C163.336 21.832 165.336 22.392 167.128 23.512C168.92 24.632 170.328 26.232 171.352 28.312C172.408 30.392 172.936 32.808 172.936 35.56C172.936 38.312 172.408 40.744 171.352 42.856C170.328 44.936 168.92 46.552 167.128 47.704C165.336 48.824 163.336 49.384 161.128 49.384C159.272 49.384 157.624 49 156.184 48.232C154.776 47.464 153.672 46.472 152.872 45.256V61.768H144.664V22.216H152.872V26.008ZM164.584 35.56C164.584 33.512 164.008 31.912 162.856 30.76C161.736 29.576 160.344 28.984 158.68 28.984C157.048 28.984 155.656 29.576 154.504 30.76C153.384 31.944 152.824 33.56 152.824 35.608C152.824 37.656 153.384 39.272 154.504 40.456C155.656 41.64 157.048 42.232 158.68 42.232C160.312 42.232 161.704 41.64 162.856 40.456C164.008 39.24 164.584 37.608 164.584 35.56ZM185.45 26.008C186.25 24.76 187.354 23.752 188.762 22.984C190.17 22.216 191.818 21.832 193.706 21.832C195.914 21.832 197.914 22.392 199.706 23.512C201.498 24.632 202.906 26.232 203.93 28.312C204.986 30.392 205.514 32.808 205.514 35.56C205.514 38.312 204.986 40.744 203.93 42.856C202.906 44.936 201.498 46.552 199.706 47.704C197.914 48.824 195.914 49.384 193.706 49.384C191.85 49.384 190.202 49 188.762 48.232C187.354 47.464 186.25 46.472 185.45 45.256V61.768H177.242V22.216H185.45V26.008ZM197.162 35.56C197.162 33.512 196.586 31.912 195.434 30.76C194.314 29.576 192.922 28.984 191.258 28.984C189.626 28.984 188.234 29.576 187.082 30.76C185.962 31.944 185.402 33.56 185.402 35.608C185.402 37.656 185.962 39.272 187.082 40.456C188.234 41.64 189.626 42.232 191.258 42.232C192.89 42.232 194.282 41.64 195.434 40.456C196.586 39.24 197.162 37.608 197.162 35.56ZM237.18 22.216L220.38 61.72H211.548L217.692 48.088L206.796 22.216H215.964L222.156 38.968L228.3 22.216H237.18Z" fill="#FF005C"/>
<path d="M272.256 15.304V21.88H258.528V28.984H268.8V35.368H258.528V49H250.32V15.304H272.256ZM303.018 22.216V49H294.81V45.352C293.978 46.536 292.842 47.496 291.402 48.232C289.994 48.936 288.426 49.288 286.698 49.288C284.65 49.288 282.842 48.84 281.274 47.944C279.706 47.016 278.49 45.688 277.626 43.96C276.762 42.232 276.33 40.2 276.33 37.864V22.216H284.49V36.76C284.49 38.552 284.954 39.944 285.882 40.936C286.81 41.928 288.058 42.424 289.626 42.424C291.226 42.424 292.49 41.928 293.418 40.936C294.346 39.944 294.81 38.552 294.81 36.76V22.216H303.018ZM325.234 21.928C328.37 21.928 330.866 22.952 332.722 25C334.61 27.016 335.554 29.8 335.554 33.352V49H327.394V34.456C327.394 32.664 326.93 31.272 326.002 30.28C325.074 29.288 323.826 28.792 322.258 28.792C320.69 28.792 319.442 29.288 318.514 30.28C317.586 31.272 317.122 32.664 317.122 34.456V49H308.914V22.216H317.122V25.768C317.954 24.584 319.074 23.656 320.482 22.984C321.89 22.28 323.474 21.928 325.234 21.928ZM339.625 35.56C339.625 32.808 340.137 30.392 341.161 28.312C342.217 26.232 343.641 24.632 345.433 23.512C347.225 22.392 349.225 21.832 351.433 21.832C353.193 21.832 354.793 22.2 356.233 22.936C357.705 23.672 358.857 24.664 359.689 25.912V13.48H367.897V49H359.689V45.16C358.921 46.44 357.817 47.464 356.377 48.232C354.969 49 353.321 49.384 351.433 49.384C349.225 49.384 347.225 48.824 345.433 47.704C343.641 46.552 342.217 44.936 341.161 42.856C340.137 40.744 339.625 38.312 339.625 35.56ZM359.689 35.608C359.689 33.56 359.113 31.944 357.961 30.76C356.841 29.576 355.465 28.984 353.833 28.984C352.201 28.984 350.809 29.576 349.657 30.76C348.537 31.912 347.977 33.512 347.977 35.56C347.977 37.608 348.537 39.24 349.657 40.456C350.809 41.64 352.201 42.232 353.833 42.232C355.465 42.232 356.841 41.64 357.961 40.456C359.113 39.272 359.689 37.656 359.689 35.608ZM384.731 49.384C382.395 49.384 380.315 48.984 378.491 48.184C376.667 47.384 375.227 46.296 374.171 44.92C373.115 43.512 372.523 41.944 372.395 40.216H380.507C380.603 41.144 381.035 41.896 381.803 42.472C382.571 43.048 383.515 43.336 384.635 43.336C385.659 43.336 386.443 43.144 386.987 42.76C387.563 42.344 387.851 41.816 387.851 41.176C387.851 40.408 387.451 39.848 386.651 39.496C385.851 39.112 384.555 38.696 382.763 38.248C380.843 37.8 379.243 37.336 377.963 36.856C376.683 36.344 375.579 35.56 374.651 34.504C373.723 33.416 373.259 31.96 373.259 30.136C373.259 28.6 373.675 27.208 374.507 25.96C375.371 24.68 376.619 23.672 378.251 22.936C379.915 22.2 381.883 21.832 384.155 21.832C387.515 21.832 390.155 22.664 392.075 24.328C394.027 25.992 395.147 28.2 395.435 30.952H387.851C387.723 30.024 387.307 29.288 386.603 28.744C385.931 28.2 385.035 27.928 383.915 27.928C382.955 27.928 382.219 28.12 381.707 28.504C381.195 28.856 380.939 29.352 380.939 29.992C380.939 30.76 381.339 31.336 382.139 31.72C382.971 32.104 384.251 32.488 385.979 32.872C387.963 33.384 389.579 33.896 390.827 34.408C392.075 34.888 393.163 35.688 394.091 36.808C395.051 37.896 395.547 39.368 395.579 41.224C395.579 42.792 395.131 44.2 394.235 45.448C393.371 46.664 392.107 47.624 390.443 48.328C388.811 49.032 386.907 49.384 384.731 49.384Z" fill="#FFF600"/>
</svg>
