<svg width="320" height="320" viewBox="0 0 320 320" fill="none" xmlns="http://www.w3.org/2000/svg">
<rect width="64" height="64" transform="translate(256 64)" fill="#FFF600"/>
<rect x="256" y="64" width="64" height="64" fill="#FFF600"/>
<rect width="64" height="64" transform="translate(256 128)" fill="#FFF600"/>
<rect x="256" y="128" width="64" height="64" fill="#FFF600"/>
<rect width="64" height="64" transform="translate(256 192)" fill="#FFF600"/>
<rect x="256" y="192" width="64" height="64" fill="#FFF600"/>
<rect width="64" height="64" transform="translate(256 256)" fill="#FFF600"/>
<rect x="256" y="256" width="64" height="64" fill="#FFF600"/>
<rect width="64" height="64" transform="translate(128 192)" fill="#FFF600"/>
<rect x="128" y="192" width="64" height="64" fill="#FFF600"/>
<rect width="64" height="64" transform="translate(64 256)" fill="#FFF600"/>
<rect x="64" y="256" width="64" height="64" fill="#FFF600"/>
<rect width="64" height="64" transform="translate(128 256)" fill="#FFF600"/>
<rect x="128" y="256" width="64" height="64" fill="#FFF600"/>
<rect width="64" height="64" transform="translate(192 256)" fill="#FFF600"/>
<rect x="192" y="256" width="64" height="64" fill="#FFF600"/>
<rect width="64" height="64" transform="translate(64)" fill="#FF005C"/>
<rect x="64" width="64" height="64" fill="#FF005C"/>
<rect width="64" height="64" transform="translate(128)" fill="#FF005C"/>
<rect x="128" width="64" height="64" fill="#FF005C"/>
<rect width="64" height="64" transform="translate(192)" fill="#FF005C"/>
<rect x="192" width="64" height="64" fill="#FF005C"/>
<rect width="64" height="64" transform="translate(128 64)" fill="#FF005C"/>
<rect x="128" y="64" width="64" height="64" fill="#FF005C"/>
<rect width="64" height="64" transform="translate(0 64)" fill="#FF005C"/>
<rect y="64" width="64" height="64" fill="#FF005C"/>
<rect width="64" height="64" transform="translate(0 128)" fill="#FF005C"/>
<rect y="128" width="64" height="64" fill="#FF005C"/>
<rect width="64" height="64" transform="translate(0 192)" fill="#FF005C"/>
<rect y="192" width="64" height="64" fill="#FF005C"/>
<rect width="64" height="64" fill="#FF005C"/>
<rect width="64" height="64" fill="#FF005C"/>
</svg>